<svg width="25" height="24" viewBox="0 0 25 24" fill="none" xmlns="http://www.w3.org/2000/svg">
<path d="M6.02644 15.368C5.22235 13.7414 5.02677 11.8808 5.47506 10.1225C5.8679 8.58171 6.73247 7.20864 7.93948 6.19064L7.93948 8C7.93948 8.49706 8.34242 8.9 8.83948 8.9C9.33653 8.9 9.73948 8.49706 9.73948 8L9.73948 4C9.73948 3.50294 9.33653 3.1 8.83948 3.1L4.83948 3.1C4.34242 3.1 3.93948 3.50294 3.93948 4C3.93948 4.49706 4.34242 4.9 4.83948 4.9L6.67925 4.9C5.23845 6.15002 4.20586 7.81478 3.73086 9.67778C3.17639 11.8525 3.41829 14.1538 4.41283 16.1657C5.40736 18.1776 7.0889 19.7672 9.15343 20.6473C11.218 21.5273 13.5292 21.6397 15.6694 20.964C17.8095 20.2884 19.6373 18.8693 20.8223 16.9634C22.0073 15.0575 22.4713 12.7904 22.1304 10.5722C21.7895 8.35399 20.6661 6.33093 18.9635 4.8688C17.2609 3.40667 15.0913 2.60195 12.847 2.60015C12.35 2.59975 11.9467 3.00236 11.9463 3.49942C11.9459 3.99648 12.3485 4.39975 12.8456 4.40015C14.6601 4.40161 16.4142 5.05222 17.7908 6.23437C19.1674 7.41653 20.0756 9.05219 20.3513 10.8456C20.6269 12.6391 20.2518 14.472 19.2937 16.013C18.3356 17.5539 16.8578 18.7013 15.1275 19.2476C13.3971 19.7938 11.5285 19.703 9.85927 18.9915C8.19007 18.2799 6.83053 16.9947 6.02644 15.368Z" fill="#171719"/>
</svg>
