<svg width="32" height="32" viewBox="0 0 32 32" fill="none" xmlns="http://www.w3.org/2000/svg">
<rect width="32" height="32" rx="16" fill="#FEE500"/>
<path fill-rule="evenodd" clip-rule="evenodd" d="M16.0007 8.62854C11.6636 8.62854 8.14355 11.3628 8.14355 14.7257C8.14355 16.8235 9.50284 18.6543 11.5771 19.77L10.705 22.9678C10.6885 23.0314 10.6919 23.0986 10.7147 23.1602C10.7375 23.2218 10.7785 23.275 10.8324 23.3126C10.8863 23.3502 10.9503 23.3705 11.016 23.3707C11.0817 23.3708 11.1459 23.3509 11.2 23.3135L15.0186 20.7757C15.3407 20.7757 15.6707 20.8307 16.0007 20.8307C20.3378 20.8307 23.8578 18.0964 23.8578 14.7257C23.8578 11.355 20.3378 8.62854 16.0007 8.62854Z" fill="black"/>
</svg>
