<svg width="24" height="25" viewBox="0 0 24 25" fill="none" xmlns="http://www.w3.org/2000/svg">
<path fill-rule="evenodd" clip-rule="evenodd" d="M12.0003 3.6543C6.79573 3.6543 2.57173 6.93544 2.57173 10.9709C2.57173 13.4883 4.20287 15.6852 6.69202 17.024L5.64545 20.8614C5.6257 20.9378 5.62976 21.0183 5.65709 21.0923C5.68442 21.1662 5.73371 21.23 5.79835 21.2752C5.86299 21.3203 5.93988 21.3446 6.01872 21.3448C6.09757 21.345 6.17458 21.3211 6.23945 21.2763L10.8217 18.2309C11.2083 18.2309 11.6043 18.2969 12.0003 18.2969C17.2049 18.2969 21.4289 15.0157 21.4289 10.9709C21.4289 6.92601 17.2049 3.6543 12.0003 3.6543Z" fill="black"/>
</svg>
