<svg width="24" height="24" viewBox="0 0 24 24" fill="none" xmlns="http://www.w3.org/2000/svg">
<path fill-rule="evenodd" clip-rule="evenodd" d="M4.6134 4.6137C4.96487 4.26223 5.53472 4.26223 5.88619 4.6137L11.9998 10.7273L18.1134 4.6137C18.4649 4.26223 19.0347 4.26223 19.3862 4.6137C19.7376 4.96517 19.7376 5.53502 19.3862 5.88649L13.2726 12.0001L19.3862 18.1137C19.7376 18.4652 19.7376 19.035 19.3862 19.3865C19.0347 19.738 18.4649 19.738 18.1134 19.3865L11.9998 13.2729L5.88619 19.3865C5.53472 19.738 4.96487 19.738 4.6134 19.3865C4.26192 19.035 4.26192 18.4652 4.6134 18.1137L10.727 12.0001L4.6134 5.88649C4.26192 5.53502 4.26192 4.96517 4.6134 4.6137Z" fill="#171719"/>
</svg>
