<svg width="24" height="24" viewBox="0 0 24 24" fill="none" xmlns="http://www.w3.org/2000/svg">
<mask id="mask0_243_1279" style="mask-type:alpha" maskUnits="userSpaceOnUse" x="-1" y="0" width="25" height="24">
<path d="M3.10034 4.99998C3.10034 4.50292 3.50329 4.09998 4.00034 4.09998H20.0003C20.4974 4.09998 20.9003 4.50292 20.9003 4.99998C20.9003 5.49703 20.4974 5.89998 20.0003 5.89998H4.00034C3.50329 5.89998 3.10034 5.49703 3.10034 4.99998Z" fill="#171719"/>
<path d="M3.10034 19C3.10034 18.5029 3.50329 18.1 4.00034 18.1H20.0003C20.4974 18.1 20.9003 18.5029 20.9003 19C20.9003 19.497 20.4974 19.9 20.0003 19.9H4.00034C3.50329 19.9 3.10034 19.497 3.10034 19Z" fill="#171719"/>
<path d="M4.00034 11.1C3.50329 11.1 3.10034 11.5029 3.10034 12C3.10034 12.497 3.50329 12.9 4.00034 12.9H20.0003C20.4974 12.9 20.9003 12.497 20.9003 12C20.9003 11.5029 20.4974 11.1 20.0003 11.1H4.00034Z" fill="#171719"/>
</mask>
<g mask="url(#mask0_243_1279)">
<rect x="-0.00012207" width="24" height="24" fill="#171719"/>
</g>
</svg>
