<svg width="24" height="24" viewBox="0 0 24 24" fill="none" xmlns="http://www.w3.org/2000/svg">
<path fill-rule="evenodd" clip-rule="evenodd" d="M17.9998 2C16.3429 2 14.9998 3.34315 14.9998 5C14.9998 5.1766 15.015 5.34964 15.0443 5.51787L7.92957 9.703C7.40793 9.26428 6.7347 9 5.99976 9C4.3429 9 2.99976 10.3431 2.99976 12C2.99976 13.6569 4.3429 15 5.99976 15C6.83005 15 7.58156 14.6627 8.12474 14.1177L15.1017 18.2217C15.0352 18.4699 14.9998 18.7308 14.9998 19C14.9998 20.6569 16.3429 22 17.9998 22C19.6566 22 20.9998 20.6569 20.9998 19C20.9998 17.3431 19.6566 16 17.9998 16C17.2648 16 16.5916 16.2643 16.07 16.703L8.95523 12.5179C8.9845 12.3496 8.99976 12.1766 8.99976 12C8.99976 11.7308 8.96431 11.47 8.89783 11.2218L15.8748 7.11767C16.418 7.66271 17.1695 8 17.9998 8C19.6566 8 20.9998 6.65685 20.9998 5C20.9998 3.34315 19.6566 2 17.9998 2ZM16.7998 5C16.7998 4.33726 17.337 3.8 17.9998 3.8C18.6625 3.8 19.1998 4.33726 19.1998 5C19.1998 5.66274 18.6625 6.2 17.9998 6.2C17.337 6.2 16.7998 5.66274 16.7998 5ZM5.99976 10.8C5.33701 10.8 4.79976 11.3373 4.79976 12C4.79976 12.6627 5.33701 13.2 5.99976 13.2C6.6625 13.2 7.19976 12.6627 7.19976 12C7.19976 11.3373 6.6625 10.8 5.99976 10.8ZM16.7998 19C16.7998 18.3373 17.337 17.8 17.9998 17.8C18.6625 17.8 19.1998 18.3373 19.1998 19C19.1998 19.6627 18.6625 20.2 17.9998 20.2C17.337 20.2 16.7998 19.6627 16.7998 19Z" fill="#171719"/>
</svg>
