<?xml version="1.0" encoding="UTF-8"?>
<svg xmlns="http://www.w3.org/2000/svg" xmlns:xlink="http://www.w3.org/1999/xlink" viewBox="0 0 264 370">
  <defs>
    <style>
      .cls-1 {
        font-size: 15.62px;
      }

      .cls-1, .cls-2 {
        fill: #e88065;
        font-family: GapyeongHanseokbong-Bold-KSCpc-EUC-H, 'Gapyeong Hanseokbong';
        font-weight: 700;
      }

      .cls-2 {
        font-size: 73.75px;
        letter-spacing: 0em;
      }

      .cls-3 {
        fill: rgba(232, 128, 101, .51);
        opacity: .37;
      }

      .cls-4 {
        fill: #fff;
      }

      .cls-5 {
        letter-spacing: 0em;
      }

      .cls-6 {
        fill: url(#_무제_그라디언트_21);
      }

      .cls-7 {
        fill: url(#_무제_그라디언트_13);
        opacity: .31;
      }

      .cls-8 {
        letter-spacing: -.05em;
      }

      .cls-9 {
        letter-spacing: -.03em;
      }

      .cls-10 {
        fill: rgba(255, 255, 255, .51);
      }
    </style>
    <linearGradient id="_무제_그라디언트_13" data-name="무제 그라디언트 13" x1="132" y1="243.29" x2="132" y2="19.38" gradientUnits="userSpaceOnUse">
      <stop offset="0" stop-color="#f16569"/>
      <stop offset=".41" stop-color="#e88065"/>
      <stop offset="1" stop-color="#fff"/>
    </linearGradient>
    <linearGradient id="_무제_그라디언트_21" data-name="무제 그라디언트 21" x1="365.68" y1="148.29" x2="365.68" y2="269.54" gradientUnits="userSpaceOnUse">
      <stop offset=".18" stop-color="#fff"/>
      <stop offset="1" stop-color="#ffd2b5" stop-opacity="0"/>
    </linearGradient>
  </defs>
  <g id="_레이어_1" data-name="레이어 1">
    <rect class="cls-3" x="-.21" width="264.21" height="373.67"/>
    <circle class="cls-7" cx="132" cy="131.33" r="111.95"/>
    <path class="cls-3" d="M-.21,204.47c22.96,73.45,57.69,94.61,73.33,79.42,23.07-22.42,48.66-14.74,68.25-3.09,33.17,19.73,70.99,19.62,93.37-10.54,10.34-13.94,22.3-15.63,29.26-16.59v69.1H-.21v-118.31Z"/>
    <path class="cls-10" d="M236.32,71.65h-37.72c1.81-1.92,2.89-4.31,2.89-6.91,0-6.23-6.19-11.32-13.75-11.32h-75.62c-7.56,0-13.75,5.1-13.75,11.32s6.19,11.32,13.75,11.32h37.72c-1.81,1.92-2.89,4.31-2.89,6.91,0,6.23,6.19,11.32,13.75,11.32h75.62c7.56,0,13.75-5.1,13.75-11.32s-6.19-11.32-13.75-11.32Z"/>
    <path class="cls-10" d="M252.07,123.23h-8.41c.4-.43.65-.96.65-1.54,0-1.39-1.38-2.53-3.07-2.53h-16.86c-1.69,0-3.07,1.14-3.07,2.53s1.38,2.53,3.07,2.53h8.41c-.4.43-.65.96-.65,1.54,0,1.39,1.38,2.53,3.07,2.53h16.86c1.69,0,3.07-1.14,3.07-2.53s-1.38-2.53-3.07-2.53Z"/>
    <path class="cls-10" d="M97.16,213.4h-20.94c1-1.29,1.61-2.91,1.61-4.66,0-4.2-3.44-7.64-7.64-7.64H28.21c-4.2,0-7.64,3.44-7.64,7.64s3.44,7.64,7.64,7.64h20.94c-1,1.29-1.61,2.91-1.61,4.66,0,4.2,3.44,7.64,7.64,7.64h41.98c4.2,0,7.64-3.44,7.64-7.64s-3.44-7.64-7.64-7.64Z"/>
    <path class="cls-4" d="M-.21,264.31c45.41,47.48,77.61,51.54,98.64,46.43,21.47-5.22,50.47-40.34,71.36-41.9,38.46-2.86,28.08,60.62,64.95,54.24,13.35-2.31,23.53-9.84,29.26-14.82v61.73H-.21v-105.69Z"/>
    <text class="cls-1" transform="translate(60.17 182.64)"><tspan x="0" y="0">HAP</tspan><tspan class="cls-8" x="34.45" y="0">P</tspan><tspan class="cls-5" x="44.58" y="0">Y N</tspan><tspan class="cls-9" x="71.24" y="0">E</tspan><tspan x="81.14" y="0">W YEAR</tspan></text>
    <text class="cls-2" transform="translate(35.42 160.77)"><tspan x="0" y="0">2025</tspan></text>
    <path class="cls-3" d="M-.11,307.68c45.41,27.03,77.61,29.34,98.64,26.43,21.47-2.97,50.47-22.96,71.36-23.85,38.46-1.63,28.08,34.51,64.95,30.88,13.35-1.31,23.53-5.6,29.26-8.43v35.14H-.11v-60.16Z"/>
  </g>
  <g id="_레이어_2" data-name="레이어 2">
    <path class="cls-6" d="M272.18,240.92s-3.22-73.73,51.53-72.6c0,0,24.75-45.06,65.36-.01,0,0,63.4-13.79,52.49,67.62,0,0,38.04,5.66,34.82,33.62h-221.59s6.44-30.19,17.39-28.62Z"/>
  </g>
</svg>